<svg width="45" height="45" viewBox="0 0 45 45" fill="none" xmlns="http://www.w3.org/2000/svg">
<path opacity="0.65" d="M15.0787 6.69104C14.9424 8.48514 15.4415 10.27 16.4888 11.7331C17.252 12.7378 18.3554 13.4296 19.5922 13.679C19.7847 13.7046 19.9804 13.6891 20.1665 13.6335C20.3525 13.5779 20.5247 13.4834 20.6715 13.3563C21.3344 12.742 21.8323 11.9711 22.1196 11.1142C22.407 10.2573 22.4745 9.34203 22.316 8.45228C21.7472 5.04021 19.5148 2.82734 16.7046 0.759277C15.7502 2.59968 15.1961 4.62122 15.0787 6.69104Z" fill="url(#paint0_linear)"/>
<path opacity="0.65" d="M11.2405 9.14939C11.573 10.9176 12.5171 12.5125 13.9072 13.6548C14.9044 14.4281 16.1494 14.8112 17.4089 14.7322C17.6014 14.7072 17.7865 14.6415 17.9518 14.5396C18.1171 14.4378 18.2589 14.302 18.3678 14.1412C18.8491 13.3762 19.1306 12.5026 19.1863 11.6005C19.2421 10.6984 19.0703 9.79677 18.6868 8.97833C17.2541 5.83144 14.5254 4.26976 11.278 2.99951C10.8318 5.02387 10.819 7.11973 11.2405 9.14939Z" fill="url(#paint1_linear)"/>
<path opacity="0.65" d="M8.1681 12.5185C8.94715 14.1406 10.2722 15.437 11.911 16.1803C13.0741 16.6696 14.3758 16.7179 15.5719 16.3161C15.7515 16.2421 15.9132 16.1308 16.0465 15.9896C16.1798 15.8484 16.2817 15.6805 16.3453 15.497C16.6121 14.6337 16.6578 13.7173 16.4782 12.8317C16.2986 11.9462 15.8996 11.1199 15.3176 10.4287C13.1188 7.75876 10.0791 6.95779 6.6123 6.57178C6.7058 8.64153 7.236 10.6681 8.1681 12.5185Z" fill="url(#paint2_linear)"/>
<path opacity="0.65" d="M6.07399 16.5682C7.24619 17.9329 8.86108 18.8418 10.6359 19.1358C11.8861 19.3069 13.1557 19.0161 14.2069 18.3181C14.3612 18.2 14.4887 18.0504 14.5809 17.8794C14.6731 17.7083 14.7279 17.5196 14.7417 17.3257C14.7761 16.4226 14.5831 15.5253 14.1804 14.7162C13.7777 13.9071 13.1782 13.2121 12.437 12.695C9.62182 10.6844 6.47855 10.6984 3.03027 11.2224C3.65628 13.1991 4.69358 15.021 6.07399 16.5682Z" fill="url(#paint3_linear)"/>
<path opacity="0.65" d="M5.09743 21.0216C6.58306 22.0369 8.37853 22.4971 10.1694 22.3217C11.4213 22.1634 12.5725 21.5539 13.4072 20.6075C13.5256 20.4536 13.6101 20.2764 13.6549 20.0874C13.6998 19.8985 13.704 19.7022 13.6674 19.5115C13.4669 18.6303 13.0482 17.8135 12.4498 17.1362C11.8514 16.4589 11.0925 15.9428 10.2427 15.6351C7.00258 14.4219 3.97018 15.2487 0.774414 16.6465C1.89062 18.3935 3.3639 19.8846 5.09743 21.0216Z" fill="url(#paint4_linear)"/>
<path opacity="0.65" d="M5.30772 25.5761C7.00542 26.1721 8.85872 26.1519 10.543 25.519C11.7113 25.0422 12.6656 24.1557 13.227 23.0256C13.3015 22.8463 13.3371 22.6532 13.3315 22.4592C13.3259 22.2651 13.2792 22.0744 13.1944 21.8997C12.7726 21.1005 12.1568 20.4199 11.4035 19.9206C10.6502 19.4213 9.7836 19.1192 8.88316 19.042C5.43986 18.7085 2.72468 20.2919 0 22.4704C1.53035 23.8684 3.33921 24.9268 5.30772 25.5761Z" fill="url(#paint5_linear)"/>
<path opacity="0.65" d="M6.6904 29.921C8.4839 30.0569 10.2681 29.5578 11.7307 28.511C12.7353 27.7477 13.4271 26.6443 13.6766 25.4075C13.7022 25.215 13.6867 25.0193 13.6311 24.8332C13.5754 24.6472 13.481 24.4751 13.3539 24.3282C12.7396 23.6654 11.9686 23.1674 11.1118 22.8801C10.2549 22.5927 9.33959 22.5252 8.44984 22.6837C5.03777 23.2526 2.8249 25.4849 0.756836 28.2951C2.59779 29.2497 4.61997 29.8039 6.6904 29.921Z" fill="url(#paint6_linear)"/>
<path opacity="0.65" d="M9.15085 33.7607C10.9191 33.4282 12.514 32.4841 13.6562 31.094C14.4296 30.0968 14.8127 28.8518 14.7337 27.5923C14.7086 27.3998 14.643 27.2147 14.5411 27.0494C14.4392 26.8841 14.3034 26.7423 14.1427 26.6334C13.3777 26.1521 12.5041 25.8707 11.602 25.815C10.6999 25.7592 9.79824 25.9309 8.9798 26.3144C5.8311 27.7471 4.27349 30.4776 3.00098 33.725C5.02546 34.1706 7.12133 34.1828 9.15085 33.7607Z" fill="url(#paint7_linear)"/>
<path opacity="0.65" d="M12.519 36.8323C14.1409 36.0535 15.4372 34.7288 16.1808 33.0904C16.6701 31.9272 16.7183 30.6256 16.3166 29.4294C16.2425 29.2499 16.1312 29.0881 15.99 28.9548C15.8489 28.8215 15.681 28.7197 15.4975 28.656C14.6342 28.3893 13.7178 28.3436 12.8322 28.5231C11.9467 28.7027 11.1204 29.1018 10.4292 29.6837C7.75925 31.8826 6.95827 34.9222 6.57227 38.389C8.64209 38.2952 10.6687 37.7647 12.519 36.8323Z" fill="url(#paint8_linear)"/>
<path opacity="0.65" d="M16.5678 38.927C17.933 37.7548 18.8422 36.1397 19.1364 34.3646C19.3074 33.1144 19.0167 31.8448 18.3187 30.7937C18.2006 30.6394 18.0512 30.512 17.8803 30.4198C17.7094 30.3276 17.5209 30.2727 17.3272 30.2588C16.424 30.2244 15.5267 30.4175 14.7176 30.8203C13.9085 31.2231 13.2135 31.8226 12.6964 32.564C10.6858 35.3792 10.6999 38.5224 11.2239 41.9707C13.2 41.3445 15.0212 40.3072 16.5678 38.927Z" fill="url(#paint9_linear)"/>
<path opacity="0.65" d="M21.022 39.9028C22.0373 38.4173 22.4975 36.622 22.3222 34.8313C22.1638 33.5794 21.5544 32.4281 20.608 31.5934C20.4541 31.475 20.2768 31.3906 20.0879 31.3457C19.899 31.3009 19.7027 31.2966 19.512 31.3332C18.6307 31.5338 17.814 31.9525 17.1367 32.5509C16.4594 33.1492 15.9432 33.9082 15.6356 34.758C14.4224 37.9976 15.2491 41.03 16.6479 44.2253C18.3946 43.1092 19.8853 41.6361 21.022 39.9028Z" fill="url(#paint10_linear)"/>
<path opacity="0.65" d="M25.5775 39.6923C26.1738 37.9947 26.1538 36.1414 25.521 34.457C25.044 33.2887 24.1573 32.3344 23.0271 31.7731C22.8478 31.6986 22.6547 31.6629 22.4606 31.6685C22.2665 31.6742 22.0759 31.7209 21.9012 31.8056C21.1019 32.2275 20.4213 32.8434 19.922 33.5967C19.4227 34.3501 19.1206 35.2168 19.0435 36.1174C18.7099 39.5607 20.2933 42.2758 22.4718 45.0001C23.8699 43.4697 24.9283 41.6609 25.5775 39.6923Z" fill="url(#paint11_linear)"/>
<path opacity="0.65" d="M29.9215 38.31C30.0579 36.5159 29.5587 34.731 28.5114 33.2679C27.7482 32.2633 26.6448 31.5715 25.408 31.3221C25.2155 31.2964 25.0198 31.3119 24.8337 31.3676C24.6477 31.4232 24.4756 31.5176 24.3287 31.6447C23.6659 32.259 23.1679 33.03 22.8806 33.8869C22.5932 34.7437 22.5257 35.659 22.6842 36.5488C23.2531 39.9609 25.4854 42.1737 28.2956 44.2418C29.25 42.4014 29.8041 40.3798 29.9215 38.31Z" fill="url(#paint12_linear)"/>
<path opacity="0.65" d="M33.7608 35.8508C33.4283 34.0826 32.4842 32.4877 31.094 31.3455C30.0969 30.5721 28.8518 30.189 27.5924 30.268C27.3998 30.2931 27.2148 30.3587 27.0495 30.4606C26.8842 30.5625 26.7424 30.6983 26.6335 30.859C26.1521 31.624 25.8707 32.4976 25.815 33.3997C25.7592 34.3018 25.931 35.2035 26.3144 36.0219C27.7471 39.1706 30.4777 40.7282 33.7246 42.0007C34.1704 39.9763 34.1827 37.8804 33.7608 35.8508Z" fill="url(#paint13_linear)"/>
<path opacity="0.65" d="M36.8323 32.4815C36.0532 30.8594 34.7282 29.563 33.0894 28.8196C31.9263 28.3304 30.6246 28.2821 29.4285 28.6839C29.249 28.758 29.0874 28.8693 28.9541 29.0105C28.8209 29.1517 28.7191 29.3195 28.6555 29.503C28.3888 30.3662 28.3431 31.2827 28.5227 32.1683C28.7022 33.0538 29.1013 33.8801 29.6832 34.5713C31.8821 37.2412 34.9217 38.0422 38.3885 38.4282C38.2949 36.3584 37.7646 34.3318 36.8323 32.4815Z" fill="url(#paint14_linear)"/>
<path opacity="0.65" d="M38.927 28.4319C37.7548 27.0667 36.1398 26.1574 34.3646 25.8633C33.1145 25.6923 31.8448 25.983 30.7937 26.681C30.6395 26.799 30.512 26.9484 30.4198 27.1194C30.3276 27.2903 30.2727 27.4788 30.2588 27.6725C30.2243 28.5758 30.4173 29.4733 30.8201 30.2826C31.2229 31.0919 31.8226 31.787 32.564 32.3042C35.3792 34.3147 38.5225 34.3007 41.9707 33.7767C41.3446 31.8003 40.3073 29.9788 38.927 28.4319Z" fill="url(#paint15_linear)"/>
<path opacity="0.65" d="M39.9034 23.9777C38.4179 22.9625 36.6226 22.5023 34.8319 22.6776C33.58 22.8359 32.4288 23.4454 31.5941 24.3918C31.4757 24.5457 31.3913 24.723 31.3466 24.9119C31.3018 25.1008 31.2976 25.2971 31.3343 25.4878C31.5351 26.3687 31.9538 27.1851 32.5521 27.8622C33.1504 28.5392 33.9091 29.0552 34.7586 29.3628C37.9978 30.576 41.0307 29.7493 44.226 28.3505C43.1097 26.6043 41.6365 25.1141 39.9034 23.9777Z" fill="url(#paint16_linear)"/>
<path opacity="0.65" d="M39.6923 19.4235C37.9946 18.8275 36.1413 18.8476 34.457 19.4805C33.2887 19.9575 32.3344 20.8442 31.7731 21.9744C31.6985 22.1537 31.6629 22.3468 31.6685 22.5409C31.6742 22.735 31.7209 22.9256 31.8056 23.1003C32.2275 23.8996 32.8433 24.5801 33.5965 25.0794C34.3498 25.5787 35.2165 25.8809 36.1169 25.9581C39.5602 26.2916 42.2754 24.7082 45.0001 22.5297C43.4697 21.1315 41.6609 20.0729 39.6923 19.4235Z" fill="url(#paint17_linear)"/>
<path opacity="0.65" d="M38.3106 15.0786C36.5171 14.9427 34.7329 15.4418 33.2703 16.4886C32.2657 17.2519 31.5739 18.3553 31.3244 19.5921C31.2989 19.7846 31.3145 19.9804 31.3702 20.1664C31.4259 20.3525 31.5204 20.5246 31.6476 20.6714C32.2619 21.3342 33.0328 21.8322 33.8897 22.1195C34.7466 22.4069 35.6619 22.4744 36.5516 22.3159C39.9637 21.747 42.1766 19.5147 44.2446 16.7045C42.4035 15.7498 40.3812 15.1956 38.3106 15.0786Z" fill="url(#paint18_linear)"/>
<path opacity="0.65" d="M35.8499 11.2395C34.0816 11.5721 32.4867 12.5161 31.3445 13.9063C30.5711 14.9035 30.188 16.1485 30.267 17.408C30.2923 17.6005 30.3582 17.7856 30.4603 17.9508C30.5624 18.116 30.6984 18.2577 30.8594 18.3664C31.6244 18.8477 32.498 19.1292 33.4001 19.1849C34.3022 19.2407 35.2038 19.0689 36.0223 18.6855C39.171 17.2527 40.7286 14.5222 42.0011 11.2753C39.9762 10.8295 37.8798 10.8173 35.8499 11.2395Z" fill="url(#paint19_linear)"/>
<path opacity="0.65" d="M32.4815 8.16754C30.8595 8.9464 29.5632 10.271 28.8196 11.9095C28.3304 13.0726 28.2821 14.3743 28.6839 15.5705C28.7579 15.75 28.8692 15.9117 29.0104 16.0451C29.1516 16.1784 29.3195 16.2802 29.503 16.3438C30.3662 16.6106 31.2827 16.6563 32.1683 16.4767C33.0538 16.2972 33.8801 15.8981 34.5713 15.3162C37.2412 13.1173 38.0422 10.0777 38.4282 6.61084C36.3584 6.70463 34.3318 7.23514 32.4815 8.16754Z" fill="url(#paint20_linear)"/>
<path opacity="0.65" d="M28.4328 6.0727C27.0676 7.24485 26.1584 8.85995 25.8643 10.6351C25.6932 11.8853 25.984 13.1549 26.682 14.206C26.8 14.3602 26.9494 14.4877 27.1203 14.5799C27.2912 14.6721 27.4798 14.727 27.6735 14.7409C28.5764 14.7755 29.4736 14.5827 30.2827 14.1804C31.0918 13.778 31.7869 13.1789 32.3042 12.438C34.3148 9.6228 34.3008 6.47953 33.7768 3.03125C31.8009 3.65679 29.9797 4.6933 28.4328 6.0727Z" fill="url(#paint21_linear)"/>
<path opacity="0.65" d="M23.9792 5.09747C22.964 6.58296 22.5037 8.37827 22.6791 10.169C22.8373 11.4209 23.4468 12.5721 24.3933 13.4068C24.5471 13.5253 24.7244 13.6097 24.9133 13.6545C25.1023 13.6994 25.2986 13.7036 25.4893 13.667C26.3705 13.4665 27.1873 13.0478 27.8646 12.4494C28.5419 11.851 29.058 11.0921 29.3656 10.2423C30.5789 7.00261 29.7521 3.97021 28.3533 0.774902C26.6067 1.89106 25.116 3.36418 23.9792 5.09747Z" fill="url(#paint22_linear)"/>
<path opacity="0.65" d="M19.423 5.30772C18.827 7.00542 18.8472 8.85872 19.4801 10.543C19.957 11.7114 20.8437 12.6657 21.974 13.227C22.1532 13.3015 22.3463 13.3371 22.5404 13.3315C22.7345 13.3259 22.9252 13.2792 23.0998 13.1944C23.8992 12.7726 24.5797 12.1567 25.079 11.4033C25.5784 10.6499 25.8804 9.78322 25.9576 8.8827C26.292 5.43941 24.7086 2.72423 22.5301 0C21.1316 1.53024 20.0727 3.3391 19.423 5.30772Z" fill="url(#paint23_linear)"/>
<defs>
<linearGradient id="paint0_linear" x1="-0.126312" y1="45.2466" x2="45.1266" y2="-0.00640821" gradientUnits="userSpaceOnUse">
<stop stop-color="#0A00B2"/>
<stop offset="0.5" stop-color="#FF0000"/>
<stop offset="1" stop-color="#FFFC00"/>
</linearGradient>
<linearGradient id="paint1_linear" x1="-0.125726" y1="45.2468" x2="45.1272" y2="-0.00619228" gradientUnits="userSpaceOnUse">
<stop stop-color="#0A00B2"/>
<stop offset="0.5" stop-color="#FF0000"/>
<stop offset="1" stop-color="#FFFC00"/>
</linearGradient>
<linearGradient id="paint2_linear" x1="-0.126315" y1="45.2468" x2="45.1267" y2="-0.00618802" gradientUnits="userSpaceOnUse">
<stop stop-color="#0A00B2"/>
<stop offset="0.5" stop-color="#FF0000"/>
<stop offset="1" stop-color="#FFFC00"/>
</linearGradient>
<linearGradient id="paint3_linear" x1="-0.125668" y1="45.2468" x2="45.1273" y2="-0.0061875" gradientUnits="userSpaceOnUse">
<stop stop-color="#0A00B2"/>
<stop offset="0.5" stop-color="#FF0000"/>
<stop offset="1" stop-color="#FFFC00"/>
</linearGradient>
<linearGradient id="paint4_linear" x1="-0.12612" y1="45.2464" x2="45.1268" y2="-0.00655865" gradientUnits="userSpaceOnUse">
<stop stop-color="#0A00B2"/>
<stop offset="0.5" stop-color="#FF0000"/>
<stop offset="1" stop-color="#FFFC00"/>
</linearGradient>
<linearGradient id="paint5_linear" x1="-0.126256" y1="45.2466" x2="45.1267" y2="-0.00633961" gradientUnits="userSpaceOnUse">
<stop stop-color="#0A00B2"/>
<stop offset="0.5" stop-color="#FF0000"/>
<stop offset="1" stop-color="#FFFC00"/>
</linearGradient>
<linearGradient id="paint6_linear" x1="-0.125598" y1="45.2464" x2="45.1274" y2="-0.0065449" gradientUnits="userSpaceOnUse">
<stop stop-color="#0A00B2"/>
<stop offset="0.5" stop-color="#FF0000"/>
<stop offset="1" stop-color="#FFFC00"/>
</linearGradient>
<linearGradient id="paint7_linear" x1="-0.126004" y1="45.2468" x2="45.127" y2="-0.0061173" gradientUnits="userSpaceOnUse">
<stop stop-color="#0A00B2"/>
<stop offset="0.5" stop-color="#FF0000"/>
<stop offset="1" stop-color="#FFFC00"/>
</linearGradient>
<linearGradient id="paint8_linear" x1="-0.126078" y1="45.2467" x2="45.1269" y2="-0.00629142" gradientUnits="userSpaceOnUse">
<stop stop-color="#0A00B2"/>
<stop offset="0.5" stop-color="#FF0000"/>
<stop offset="1" stop-color="#FFFC00"/>
</linearGradient>
<linearGradient id="paint9_linear" x1="-0.126453" y1="45.2466" x2="45.1265" y2="-0.00640269" gradientUnits="userSpaceOnUse">
<stop stop-color="#0A00B2"/>
<stop offset="0.5" stop-color="#FF0000"/>
<stop offset="1" stop-color="#FFFC00"/>
</linearGradient>
<linearGradient id="paint10_linear" x1="-0.126024" y1="45.2467" x2="45.1269" y2="-0.00625198" gradientUnits="userSpaceOnUse">
<stop stop-color="#0A00B2"/>
<stop offset="0.5" stop-color="#FF0000"/>
<stop offset="1" stop-color="#FFFC00"/>
</linearGradient>
<linearGradient id="paint11_linear" x1="-0.12615" y1="45.2467" x2="45.1268" y2="-0.00626904" gradientUnits="userSpaceOnUse">
<stop stop-color="#0A00B2"/>
<stop offset="0.5" stop-color="#FF0000"/>
<stop offset="1" stop-color="#FFFC00"/>
</linearGradient>
<linearGradient id="paint12_linear" x1="-0.126443" y1="45.2464" x2="45.1265" y2="-0.0065714" gradientUnits="userSpaceOnUse">
<stop stop-color="#0A00B2"/>
<stop offset="0.5" stop-color="#FF0000"/>
<stop offset="1" stop-color="#FFFC00"/>
</linearGradient>
<linearGradient id="paint13_linear" x1="-0.125976" y1="45.2467" x2="45.127" y2="-0.00624718" gradientUnits="userSpaceOnUse">
<stop stop-color="#0A00B2"/>
<stop offset="0.5" stop-color="#FF0000"/>
<stop offset="1" stop-color="#FFFC00"/>
</linearGradient>
<linearGradient id="paint14_linear" x1="-0.126246" y1="45.2465" x2="45.1267" y2="-0.0065043" gradientUnits="userSpaceOnUse">
<stop stop-color="#0A00B2"/>
<stop offset="0.5" stop-color="#FF0000"/>
<stop offset="1" stop-color="#FFFC00"/>
</linearGradient>
<linearGradient id="paint15_linear" x1="-0.126297" y1="45.2465" x2="45.1267" y2="-0.00647541" gradientUnits="userSpaceOnUse">
<stop stop-color="#0A00B2"/>
<stop offset="0.5" stop-color="#FF0000"/>
<stop offset="1" stop-color="#FFFC00"/>
</linearGradient>
<linearGradient id="paint16_linear" x1="-0.126013" y1="45.2466" x2="45.127" y2="-0.00636386" gradientUnits="userSpaceOnUse">
<stop stop-color="#0A00B2"/>
<stop offset="0.5" stop-color="#FF0000"/>
<stop offset="1" stop-color="#FFFC00"/>
</linearGradient>
<linearGradient id="paint17_linear" x1="-0.126649" y1="45.2467" x2="45.1263" y2="-0.00628474" gradientUnits="userSpaceOnUse">
<stop stop-color="#0A00B2"/>
<stop offset="0.5" stop-color="#FF0000"/>
<stop offset="1" stop-color="#FFFC00"/>
</linearGradient>
<linearGradient id="paint18_linear" x1="-0.126367" y1="45.2465" x2="45.1266" y2="-0.00651742" gradientUnits="userSpaceOnUse">
<stop stop-color="#0A00B2"/>
<stop offset="0.5" stop-color="#FF0000"/>
<stop offset="1" stop-color="#FFFC00"/>
</linearGradient>
<linearGradient id="paint19_linear" x1="-0.126246" y1="45.2467" x2="45.1267" y2="-0.00628137" gradientUnits="userSpaceOnUse">
<stop stop-color="#0A00B2"/>
<stop offset="0.5" stop-color="#FF0000"/>
<stop offset="1" stop-color="#FFFC00"/>
</linearGradient>
<linearGradient id="paint20_linear" x1="-0.126419" y1="45.2465" x2="45.1265" y2="-0.00649617" gradientUnits="userSpaceOnUse">
<stop stop-color="#0A00B2"/>
<stop offset="0.5" stop-color="#FF0000"/>
<stop offset="1" stop-color="#FFFC00"/>
</linearGradient>
<linearGradient id="paint21_linear" x1="-0.125862" y1="45.2464" x2="45.1271" y2="-0.0065834" gradientUnits="userSpaceOnUse">
<stop stop-color="#0A00B2"/>
<stop offset="0.5" stop-color="#FF0000"/>
<stop offset="1" stop-color="#FFFC00"/>
</linearGradient>
<linearGradient id="paint22_linear" x1="-0.125706" y1="45.2468" x2="45.1273" y2="-0.00615868" gradientUnits="userSpaceOnUse">
<stop stop-color="#0A00B2"/>
<stop offset="0.5" stop-color="#FF0000"/>
<stop offset="1" stop-color="#FFFC00"/>
</linearGradient>
<linearGradient id="paint23_linear" x1="-0.126238" y1="45.2466" x2="45.1267" y2="-0.00633567" gradientUnits="userSpaceOnUse">
<stop stop-color="#0A00B2"/>
<stop offset="0.5" stop-color="#FF0000"/>
<stop offset="1" stop-color="#FFFC00"/>
</linearGradient>
</defs>
</svg>
