<svg width="10" height="11" viewBox="0 0 10 11" fill="none" xmlns="http://www.w3.org/2000/svg">
<path fill-rule="evenodd" clip-rule="evenodd" d="M9.80113 5.89118L5.48011 10.2122C5.21495 10.4774 4.78505 10.4774 4.51989 10.2122L0.198869 5.89118C-0.0662892 5.62602 -0.0662892 5.19611 0.198869 4.93095C0.464029 4.66579 0.893937 4.66579 1.1591 4.93095L4.32102 8.09287L4.32102 0.678982C4.32102 0.303991 4.62501 -2.34948e-07 5 -2.18557e-07C5.37499 -2.02166e-07 5.67898 0.303991 5.67898 0.678982L5.67898 8.09287L8.8409 4.93095C9.10606 4.66579 9.53597 4.66579 9.80113 4.93095C10.0663 5.19611 10.0663 5.62602 9.80113 5.89118Z" fill="black"/>
</svg>
