<svg width="16" height="16" viewBox="0 0 16 16" fill="none" xmlns="http://www.w3.org/2000/svg">
<path d="M2.28571 0C1.67951 0 1.09812 0.240816 0.66947 0.66947C0.240816 1.09812 0 1.67951 0 2.28571V13.7143C0 14.3205 0.240816 14.9019 0.66947 15.3305C1.09812 15.7592 1.67951 16 2.28571 16H13.7143C14.3205 16 14.9019 15.7592 15.3305 15.3305C15.7592 14.9019 16 14.3205 16 13.7143V2.28571C16 1.67951 15.7592 1.09812 15.3305 0.66947C14.9019 0.240816 14.3205 0 13.7143 0H2.28571ZM6.85714 11.9017L3.76343 8.808L5.37943 7.192L6.85714 8.66971L11.192 4.33486L12.808 5.95086L6.85714 11.9017Z" fill="black"/>
</svg>
