<svg width="40" height="40" viewBox="0 0 40 40" fill="none" xmlns="http://www.w3.org/2000/svg">
<path d="M35 30H15C13.6198 30 12.4414 29.5117 11.4648 28.5352C10.4883 27.5586 10 26.3802 10 25V5C10 3.61979 10.4883 2.44141 11.4648 1.46484C12.4414 0.488281 13.6198 0 15 0H35C36.3802 0 37.5586 0.488281 38.5352 1.46484C39.5117 2.44141 40 3.61979 40 5V25C40 26.3802 39.5117 27.5586 38.5352 28.5352C37.5586 29.5117 36.3802 30 35 30ZM35 7.5C35 6.79688 34.7591 6.20443 34.2773 5.72266C33.7956 5.24089 33.2031 5 32.5 5H17.5C16.7969 5 16.2044 5.24089 15.7227 5.72266C15.2409 6.20443 15 6.79036 15 7.48047C15 8.17057 15.2409 8.76302 15.7227 9.25781C16.2044 9.7526 16.7969 10 17.5 10H26.5625L15.6641 20.8984C15.1953 21.3672 14.9609 21.9336 14.9609 22.5977C14.9609 23.2617 15.1953 23.8281 15.6641 24.2969C16.1328 24.7656 16.6992 25 17.3633 25C18.0273 25 18.5938 24.7656 19.0625 24.2969L30 13.3594V22.5C30 23.2031 30.2474 23.7956 30.7422 24.2773C31.237 24.7591 31.8294 25 32.5195 25C33.2096 25 33.7956 24.7591 34.2773 24.2773C34.7591 23.7956 35 23.2031 35 22.5V7.5ZM32.5 37.5195C32.5 38.2096 32.2591 38.7956 31.7773 39.2773C31.2956 39.7591 30.7031 40 30 40H5C3.61979 40 2.44141 39.5117 1.46484 38.5352C0.488281 37.5586 0 36.3802 0 35V10C0 9.29688 0.240885 8.70443 0.722656 8.22266C1.20443 7.74089 1.79036 7.5 2.48047 7.5C3.17057 7.5 3.76302 7.74089 4.25781 8.22266C4.7526 8.70443 5 9.29688 5 10V32.5C5 33.2031 5.24089 33.7956 5.72266 34.2773C6.20443 34.7591 6.79688 35 7.5 35H30C30.6771 35 31.263 35.2474 31.7578 35.7422C32.2526 36.237 32.5 36.8294 32.5 37.5195Z" fill="#9FBBB4"/>
</svg>
