<svg width="20" height="22" viewBox="0 0 20 22" fill="none" xmlns="http://www.w3.org/2000/svg">
<path d="M10 0L0.546667 3.43583L0 3.64583V16.3808L0.4425 16.615L9.60917 21.615L10 21.8233L10.3908 21.615L19.5575 16.615L20 16.3808V3.645L19.4533 3.43667L10 0ZM10 1.77L16.9792 4.29667L10 7.47333L3.02083 4.29667L10 1.77ZM10 3.385C9.07917 3.385 8.33333 3.76 8.33333 4.21833C8.33333 4.67667 9.07917 5.05167 10 5.05167C10.9208 5.05167 11.6667 4.67667 11.6667 4.21833C11.6667 3.76 10.9208 3.385 10 3.385ZM1.66667 5.49417L9.16667 8.90583V19.4792L1.66667 15.39V5.49417ZM18.3333 5.49417V15.39L10.8333 19.4792V8.905L18.3333 5.49417ZM7.21333 9.21833C6.905 9.21833 6.66667 9.51417 6.66667 9.9475C6.66667 10.5042 6.9625 11.0808 7.39583 11.3275C7.51917 11.3892 7.6625 11.38 7.78667 11.38C7.97167 11.38 8.07917 11.3217 8.20333 11.1975C8.265 11.0742 8.33333 10.8975 8.33333 10.6508C8.33333 10.0942 7.95833 9.5175 7.52583 9.27083C7.4025 9.20833 7.3375 9.21833 7.21333 9.21833ZM13.3592 10.0517C13.2864 10.0678 13.2162 10.0942 13.1508 10.13C12.6425 10.3475 12.2133 11.0675 12.2133 11.7183C12.2133 11.9367 12.1967 12.145 12.3442 12.2917C12.49 12.4375 12.6467 12.525 12.865 12.525C13.0108 12.525 13.1608 12.5192 13.3067 12.4475C13.815 12.1575 14.1667 11.4908 14.1667 10.9108C14.1667 10.4025 13.9517 10.0517 13.5158 10.0517C13.48 10.0517 13.4208 10.0417 13.3592 10.0517ZM5.10417 11.1192C4.795 11.1192 4.5575 11.4158 4.5575 11.8483C4.5575 12.405 4.85333 12.955 5.28667 13.2025C5.41 13.2642 5.5275 13.2808 5.65083 13.2808C5.83667 13.2808 5.97 13.2225 6.09333 13.0983C6.15583 12.975 6.22417 12.7733 6.22417 12.5258C6.22417 11.9692 5.84917 11.4192 5.41667 11.1717C5.29333 11.11 5.2275 11.1192 5.10417 11.1192ZM16.2758 12.0833C16.2142 12.0925 16.1392 12.0992 16.0675 12.135C15.5592 12.3533 15.13 13.0983 15.13 13.75C15.13 13.9675 15.14 14.1758 15.2867 14.3225C15.4333 14.4692 15.5633 14.5308 15.7808 14.5308C15.9275 14.5308 16.0775 14.55 16.2242 14.4783C16.7325 14.1892 17.0833 13.5217 17.0833 12.9425C17.0833 12.4342 16.8683 12.0825 16.4325 12.0825C16.3967 12.0825 16.3375 12.0733 16.2758 12.0825V12.0833ZM3.04667 12.89C2.73833 12.89 2.5 13.1867 2.5 13.6192C2.5 14.1758 2.79583 14.7525 3.22917 15C3.3525 15.0617 3.49583 15.0517 3.62 15.0517C3.805 15.0517 3.9125 14.9933 4.03667 14.8692C4.09833 14.7458 4.16667 14.5692 4.16667 14.3225C4.16667 13.7658 3.79167 13.1892 3.35917 12.9425C3.23583 12.8808 3.17083 12.89 3.04667 12.89Z" fill="#9FBBB4"/>
</svg>
