<svg width="25" height="25" viewBox="0 0 25 25" fill="none" xmlns="http://www.w3.org/2000/svg">
<path fill-rule="evenodd" clip-rule="evenodd" d="M0.735084 11.7681C0.328993 11.7682 -0.000115938 12.0975 0 12.5036C0.000861265 15.5352 1.10345 18.4632 3.10245 20.7424C5.10146 23.0216 7.86065 24.4966 10.8663 24.8928C13.8719 25.2891 16.9191 24.5795 19.4404 22.8962C21.9618 21.213 23.7855 18.6707 24.572 15.7429C25.3585 12.8151 25.0542 9.70124 23.7157 6.98111C22.3771 4.26098 20.0957 2.12 17.2961 0.956792C14.4965 -0.206411 11.3696 -0.312548 8.49763 0.658144C6.32133 1.3937 4.40378 2.70958 2.94117 4.44527V0.738884C2.94117 0.332792 2.61197 0.0035903 2.20588 0.0035903C1.79979 0.0035903 1.47059 0.332792 1.47059 0.738884V6.62123C1.47059 7.02733 1.79979 7.35653 2.20588 7.35653H8.08823C8.49432 7.35653 8.82353 7.02733 8.82353 6.62123C8.82353 6.21514 8.49432 5.88594 8.08823 5.88594H3.67379C5.0045 4.11014 6.84718 2.76828 8.96849 2.05131C11.5026 1.19482 14.2617 1.28847 16.7319 2.31482C19.2021 3.34118 21.2151 5.23029 22.3962 7.6304C23.5772 10.0305 23.8457 12.778 23.1518 15.3614C22.4578 17.9448 20.8486 20.1879 18.6239 21.6731C16.3992 23.1584 13.7105 23.7845 11.0585 23.4349C8.40645 23.0852 5.97188 21.7837 4.20805 19.7727C2.44422 17.7617 1.47135 15.1781 1.47059 12.5032C1.47047 12.0971 1.14118 11.768 0.735084 11.7681ZM15.4412 12.5036C15.4412 14.128 14.1244 15.4448 12.5 15.4448C10.8756 15.4448 9.55882 14.128 9.55882 12.5036C9.55882 10.8792 10.8756 9.56241 12.5 9.56241C14.1244 9.56241 15.4412 10.8792 15.4412 12.5036Z" fill="white"/>
</svg>
