<svg width="28" height="28" viewBox="0 0 28 28" fill="none" xmlns="http://www.w3.org/2000/svg">
<path fill-rule="evenodd" clip-rule="evenodd" d="M22.0062 5.48959C18.6867 2.17014 13.3048 2.17014 9.98539 5.48959C6.66593 8.80905 6.66593 14.191 9.98539 17.5104C13.3048 20.8299 18.6867 20.8299 22.0062 17.5104C25.3257 14.191 25.3257 8.80905 22.0062 5.48959ZM7.86407 3.36827C12.3551 -1.12276 19.6365 -1.12276 24.1275 3.36827C28.6186 7.8593 28.6186 15.1407 24.1275 19.6317C19.9952 23.764 13.5005 24.0941 8.99077 20.6219C8.96962 20.6459 8.94757 20.6694 8.92462 20.6924L2.56066 27.0564C1.97487 27.6421 1.02513 27.6421 0.43934 27.0564C-0.146447 26.4706 -0.146447 25.5208 0.43934 24.935L6.8033 18.5711C6.82625 18.5481 6.84977 18.5261 6.87379 18.5049C3.4017 13.9952 3.73179 7.50055 7.86407 3.36827Z" fill="#D2C6BD"/>
</svg>
