<svg width="117" height="97" viewBox="0 0 117 97" fill="none" xmlns="http://www.w3.org/2000/svg">
<path d="M7.87715 82.7773H5.96992L5.96309 89.374C5.95853 89.6976 5.92435 89.9824 5.86055 90.2285C5.79674 90.4746 5.70104 90.6797 5.57344 90.8438C5.45495 91.0033 5.30456 91.124 5.12226 91.2061C4.94453 91.2835 4.73945 91.3223 4.50703 91.3223C4.29284 91.3223 4.10371 91.2858 3.93965 91.2129C3.77559 91.1354 3.63659 91.0215 3.52266 90.8711C3.39961 90.707 3.30618 90.4997 3.24238 90.249C3.18314 89.9984 3.15124 89.7067 3.14668 89.374L3.13984 82.7773H1.21894L1.21211 89.374C1.21211 89.93 1.28958 90.4268 1.44453 90.8643C1.60404 91.2972 1.82734 91.6618 2.11445 91.958C2.40156 92.2542 2.74564 92.4798 3.14668 92.6348C3.55228 92.7897 4.00573 92.8672 4.50703 92.8672C5.04023 92.8672 5.51419 92.7897 5.92891 92.6348C6.34818 92.4798 6.70365 92.252 6.99531 91.9512C7.28242 91.6549 7.50117 91.2904 7.65156 90.8574C7.80651 90.4245 7.88398 89.93 7.88398 89.374L7.87715 82.7773ZM17.617 92.7305V82.7773H15.6893L15.6824 89.1689L12.9344 82.7773H10.9998V92.7305H12.9344V86.3115L15.7029 92.7305H17.617ZM23.2211 82.7773H20.8354V92.7305H22.599V89.7842L22.517 85.3135L23.6859 89.4492H24.6361L25.9418 85.1289L25.8598 89.7842V92.7305H27.6234V82.7773H25.2377L24.1645 86.5166L23.2211 82.7773ZM35.5654 90.6523L36.1465 92.7305H38.1699L34.9707 82.7773H33.2275L29.9668 92.7305H31.9902L32.5781 90.6523H35.5654ZM33.0498 89.0186L34.0957 85.3545L35.1143 89.0186H33.0498ZM40.9029 82.7773V84.3291H42.7965V91.1855H40.9029V92.7305H46.6588V91.1855H44.7174V84.3291H46.6588V82.7773H40.9029ZM56.8498 92.7305V82.7773H54.9221L54.9152 89.1689L52.1672 82.7773H50.2326V92.7305H52.1672V86.3115L54.9357 92.7305H56.8498ZM67.41 84.3428V82.7773H59.3846V84.3428H62.4129V92.7305H64.3406V84.3428H67.41ZM74.7982 90.6523L75.3793 92.7305H77.4027L74.2035 82.7773H72.4604L69.1996 92.7305H71.2231L71.8109 90.6523H74.7982ZM72.2826 89.0186L73.3285 85.3545L74.3471 89.0186H72.2826ZM80.1357 82.7773V84.3291H82.0293V91.1855H80.1357V92.7305H85.8916V91.1855H83.9502V84.3291H85.8916V82.7773H80.1357ZM96.0826 92.7305V82.7773H94.1549L94.148 89.1689L91.4 82.7773H89.4654V92.7305H91.4V86.3115L94.1685 92.7305H96.0826ZM105.453 88.3691V86.8516H101.365V84.3428H106.123V82.7773H99.4377V92.7305H106.144V91.1787H101.365V88.3691H105.453ZM109.096 92.7305H111.768C112.21 92.7305 112.625 92.6758 113.012 92.5664C113.404 92.457 113.762 92.2998 114.086 92.0947C114.364 91.9215 114.619 91.7074 114.851 91.4521C115.084 91.1924 115.287 90.9098 115.46 90.6045C115.642 90.2627 115.783 89.8867 115.884 89.4766C115.984 89.0664 116.034 88.6312 116.034 88.1709V87.3506C116.034 86.8721 115.979 86.4209 115.87 85.9971C115.765 85.5732 115.615 85.1859 115.419 84.835C115.25 84.5479 115.052 84.2835 114.824 84.042C114.601 83.7959 114.346 83.5885 114.058 83.4199C113.73 83.2148 113.366 83.0576 112.965 82.9482C112.564 82.8343 112.133 82.7773 111.673 82.7773H109.096V92.7305ZM111.03 84.3359H111.673C111.905 84.3359 112.119 84.3633 112.315 84.418C112.516 84.4681 112.698 84.541 112.862 84.6367C113.076 84.7643 113.263 84.9284 113.423 85.1289C113.587 85.3294 113.719 85.5573 113.819 85.8125C113.901 86.0267 113.963 86.2637 114.004 86.5234C114.049 86.7786 114.072 87.0498 114.072 87.3369V88.1709C114.072 88.4762 114.049 88.7611 114.004 89.0254C113.963 89.2852 113.901 89.5221 113.819 89.7363C113.719 89.9824 113.598 90.1989 113.457 90.3857C113.32 90.568 113.165 90.7184 112.992 90.8369C112.823 90.9508 112.637 91.0374 112.431 91.0967C112.226 91.1559 112.005 91.1855 111.768 91.1855H111.03V84.3359Z" fill="white"/>
<path fill-rule="evenodd" clip-rule="evenodd" d="M82.9728 65.1902C85.0403 67.2577 88.3923 67.2577 90.4598 65.1902C92.5273 63.1228 92.5273 59.7707 90.4598 57.7032L83.4407 50.6842C81.3732 48.6167 78.0212 48.6167 75.9537 50.6842C73.8862 52.7516 73.8862 56.1037 75.9537 58.1712L82.9728 65.1902ZM61.9155 44.133C63.983 46.2005 67.3351 46.2005 69.4026 44.133C71.47 42.0655 71.47 38.7135 69.4026 36.646L66.1271 33.3705L69.4025 30.0951C71.47 28.0276 71.47 24.6755 69.4025 22.608C67.335 20.5406 63.983 20.5406 61.9155 22.608L58.6401 25.8835L55.3644 22.6079C53.2969 20.5404 49.9449 20.5404 47.8774 22.6079C45.8099 24.6753 45.8099 28.0274 47.8774 30.0949L51.153 33.3705L47.8774 36.6462C45.8099 38.7137 45.8099 42.0657 47.8774 44.1332C49.9448 46.2007 53.2969 46.2007 55.3644 44.1332L58.6401 40.8575L61.9155 44.133ZM33.8392 16.0567C35.9067 18.1242 39.2588 18.1242 41.3263 16.0567C43.3937 13.9892 43.3937 10.6372 41.3263 8.5697L34.3072 1.55063C32.2397 -0.516852 28.8877 -0.516854 26.8202 1.55063C24.7527 3.61811 24.7527 6.97016 26.8202 9.03764L33.8392 16.0567ZM26.8201 57.7034C24.7527 59.7709 24.7527 63.123 26.8201 65.1904C28.8876 67.2579 32.2397 67.2579 34.3071 65.1904L41.3262 58.1714C43.3937 56.1039 43.3937 52.7518 41.3262 50.6843C39.2587 48.6169 35.9067 48.6169 33.8392 50.6843L26.8201 57.7034ZM75.9537 8.5699C73.8862 10.6374 73.8862 13.9894 75.9537 16.0569C78.0211 18.1244 81.3732 18.1244 83.4407 16.0569L90.4597 9.03784C92.5272 6.97036 92.5272 3.6183 90.4597 1.55082C88.3923 -0.516658 85.0402 -0.516656 82.9727 1.55082L75.9537 8.5699Z" fill="white"/>
</svg>
