<svg width="121" height="120" viewBox="0 0 121 120" fill="none" xmlns="http://www.w3.org/2000/svg">
<path fill-rule="evenodd" clip-rule="evenodd" d="M103.752 117.212C107.469 120.929 113.496 120.929 117.214 117.212C120.931 113.495 120.931 107.468 117.214 103.75L104.593 91.13C100.876 87.4127 94.8492 87.4127 91.1318 91.13C87.4145 94.8474 87.4145 100.874 91.1318 104.592L103.752 117.212ZM65.8913 79.3511C69.6086 83.0684 75.6356 83.0684 79.3529 79.3511C83.0702 75.6338 83.0702 69.6068 79.3529 65.8895L73.4627 59.9992L79.3511 54.1109C83.0684 50.3935 83.0684 44.3665 79.3511 40.6492C75.6338 36.9319 69.6068 36.9319 65.8895 40.6492L60.0011 46.5376L54.1123 40.6489C50.395 36.9315 44.368 36.9315 40.6507 40.6489C36.9334 44.3662 36.9334 50.3932 40.6507 54.1105L46.5394 59.9992L40.6489 65.8898C36.9315 69.6071 36.9315 75.6341 40.6489 79.3514C44.3662 83.0688 50.3932 83.0688 54.1105 79.3514L60.0011 73.4609L65.8913 79.3511ZM15.4101 28.8699C19.1274 32.5873 25.1544 32.5873 28.8717 28.8699C32.5891 25.1526 32.5891 19.1256 28.8717 15.4083L16.2515 2.788C12.5341 -0.92933 6.50714 -0.929334 2.78982 2.788C-0.927514 6.50532 -0.92751 12.5323 2.78982 16.2496L15.4101 28.8699ZM2.788 103.751C-0.929332 107.468 -0.929332 113.495 2.788 117.212C6.50533 120.93 12.5323 120.93 16.2496 117.212L28.8699 104.592C32.5873 100.875 32.5873 94.8477 28.8699 91.1304C25.1526 87.413 19.1256 87.413 15.4083 91.1304L2.788 103.751ZM91.13 15.4086C87.4127 19.126 87.4127 25.153 91.13 28.8703C94.8474 32.5876 100.874 32.5876 104.592 28.8703L117.212 16.25C120.929 12.5327 120.929 6.50568 117.212 2.78835C113.495 -0.928981 107.468 -0.928978 103.75 2.78835L91.13 15.4086Z" fill="white"/>
</svg>
